<svg width="68" height="73" viewBox="0 0 68 73" fill="none" xmlns="http://www.w3.org/2000/svg">
<path d="M42.1556 14.0628C42.261 11.3221 42.3131 9.9529 41.4603 9.39263C40.611 8.83123 39.4171 9.45093 37.0304 10.688L36.4125 11.0095C35.7374 11.3613 35.3975 11.536 35.0282 11.5573C34.6601 11.5762 34.3017 11.441 33.585 11.1647L32.9346 10.9168C30.4133 9.94297 29.155 9.45729 28.375 10.1089C27.5962 10.7582 27.8136 12.1143 28.2474 14.8229L28.3618 15.5249C28.4839 16.294 28.5456 16.6774 28.4543 17.0443C28.3606 17.41 28.1251 17.714 27.6541 18.322L27.2228 18.8756C25.5599 21.0142 24.7284 22.0835 25.098 23.0472C25.4711 24.0098 26.7972 24.2274 29.4517 24.6639L30.1379 24.7773C30.8939 24.8999 31.2684 24.9624 31.5822 25.1674C31.8948 25.3749 32.1066 25.6981 32.5301 26.3506L32.9161 26.9416C34.4066 29.2354 35.1518 30.3823 36.16 30.3267C37.1683 30.2711 37.7721 29.0504 38.9784 26.6116L39.2883 25.9798C39.6319 25.2876 39.8037 24.9385 40.0884 24.7021C40.3744 24.4633 40.7409 24.3595 41.4752 24.1556L42.144 23.9686C44.7288 23.2459 46.0212 22.8845 46.2727 21.8862C46.5254 20.8915 45.572 19.9187 43.664 17.9754L43.1679 17.4714C42.6248 16.9189 42.3532 16.6427 42.2177 16.287C42.0821 15.9373 42.0977 15.549 42.1276 14.7689L42.1556 14.0628Z" fill="white"/>
<path fill-rule="evenodd" clip-rule="evenodd" d="M59.0825 39.9669C59.0969 40.2299 59.0597 40.493 58.9731 40.7411C58.8865 40.9893 58.7521 41.2176 58.5776 41.413C58.4032 41.6085 58.192 41.7673 57.9563 41.8803C57.7205 41.9933 57.4648 42.0583 57.2037 42.0717C39.6794 42.9716 29.8285 54.0059 26.0296 61.4642C25.789 61.9365 25.3716 62.2925 24.8692 62.4538C24.3669 62.6152 23.8206 62.5686 23.3507 62.3244C22.8808 62.0802 22.5257 61.6584 22.3635 61.1518C22.2013 60.6451 22.2454 60.0952 22.4859 59.6228C26.7493 51.2527 37.6937 39.0569 56.9851 38.0662C57.2462 38.0528 57.5076 38.0912 57.7543 38.1795C58.0011 38.2677 58.2283 38.404 58.4231 38.5805C58.6178 38.757 58.7763 38.9703 58.8895 39.2081C59.0026 39.446 59.0682 39.7038 59.0825 39.9669ZM29.4412 31.045C29.8268 31.4095 30.0534 31.9128 30.0714 32.4441C30.0893 32.9755 29.8969 33.4914 29.5367 33.8784C27.1203 36.4756 24.6616 40.7866 22.5442 45.2839C20.7709 49.0589 19.2124 52.9333 17.8764 56.8883C17.6996 57.3785 17.3397 57.7791 16.8731 58.0049C16.4065 58.2307 15.8701 58.2639 15.378 58.0974C14.886 57.9309 14.477 57.5779 14.2383 57.1134C13.9995 56.649 13.9497 56.1097 14.0995 55.6104C15.4855 51.5014 17.1029 47.4762 18.9437 43.5541C21.095 38.9843 23.7683 34.1993 26.6283 31.1299C26.9887 30.743 27.4875 30.5167 28.015 30.5008C28.5425 30.4849 29.0555 30.6806 29.4412 31.045Z" fill="white"/>
<path d="M12.1361 29.5312C12.2123 29.2465 12.736 29.2213 12.8402 29.4977C13.1448 30.2956 13.608 31.2689 14.22 31.8271C14.8319 32.3853 15.8349 32.7563 16.6541 32.9838C16.9347 33.0606 16.9605 33.5905 16.6901 33.6932C15.8968 33.9956 14.9334 34.4619 14.3816 35.0759C13.831 35.6877 13.4666 36.6964 13.244 37.5206C13.1653 37.804 12.6393 37.8279 12.5374 37.5528C12.2328 36.7549 11.7684 35.784 11.1577 35.2234C10.5457 34.6652 9.54274 34.2941 8.72354 34.0667C8.44296 33.9899 8.4171 33.46 8.68751 33.3573C9.48085 33.0549 10.4443 32.5886 10.9949 31.9769C11.5467 31.3628 11.9123 30.3517 12.1361 29.5312Z" fill="white"/>
</svg>
