<svg width="18" height="18" viewBox="0 0 18 18" fill="none" xmlns="http://www.w3.org/2000/svg">
<path d="M15.4361 15.1141V7.9605H13.9582C14.1042 8.42416 14.1772 8.90621 14.1772 9.40667C14.1772 10.334 13.9436 11.1895 13.4766 11.9733C13.0095 12.7571 12.3746 13.3772 11.5718 13.8335C10.769 14.2898 9.89327 14.5179 8.94454 14.5179C7.50684 14.5179 6.27714 14.0193 5.25543 13.0221C4.23372 12.0249 3.72286 10.8197 3.72286 9.40667C3.72286 8.90621 3.79584 8.42416 3.9418 7.9605H2.39829V15.1141C2.39829 15.3054 2.46215 15.4655 2.58986 15.5943C2.71757 15.7231 2.8763 15.7875 3.06605 15.7875H14.7683C14.9507 15.7875 15.1076 15.7231 15.239 15.5943C15.3704 15.4655 15.4361 15.3054 15.4361 15.1141ZM11.3364 11.5649C11.3364 11.5649 11.5016 11.4039 11.8318 11.0819C12.162 10.7599 12.3271 10.1426 12.3271 9.23004C12.3271 8.31744 11.9969 7.53916 11.3364 6.89519C10.676 6.25122 9.87867 5.92924 8.94454 5.92924C8.0177 5.92924 7.22405 6.25122 6.56359 6.89519C5.90312 7.53916 5.57289 8.31744 5.57289 9.23004C5.57289 10.1426 5.90312 10.9209 6.56359 11.5649C7.22405 12.2088 8.0177 12.5308 8.94454 12.5308C9.87867 12.5308 10.676 12.2088 11.3364 11.5649ZM15.4361 5.25583V3.43432C15.4361 3.22825 15.3631 3.04978 15.2171 2.89891C15.0712 2.74804 14.8924 2.6726 14.6807 2.6726H12.776C12.5643 2.6726 12.3855 2.74804 12.2396 2.89891C12.0936 3.04978 12.0206 3.22825 12.0206 3.43432V5.25583C12.0206 5.46926 12.0936 5.64957 12.2396 5.79677C12.3855 5.94396 12.5643 6.01756 12.776 6.01756H14.6807C14.8924 6.01756 15.0712 5.94396 15.2171 5.79677C15.3631 5.64957 15.4361 5.46926 15.4361 5.25583ZM17.3408 2.95963V15.5667C17.3408 16.1628 17.1292 16.6743 16.7059 17.1012C16.2826 17.528 15.7754 17.7415 15.1843 17.7415H2.68291C2.09177 17.7415 1.58457 17.528 1.16129 17.1012C0.738007 16.6743 0.526367 16.1628 0.526367 15.5667V2.95963C0.526367 2.3635 0.738007 1.852 1.16129 1.42514C1.58457 0.998283 2.09177 0.784855 2.68291 0.784855H15.1843C15.7754 0.784855 16.2826 0.998283 16.7059 1.42514C17.1292 1.852 17.3408 2.3635 17.3408 2.95963Z" fill="#58585A"/>
</svg>
