<svg width="74" height="74" viewBox="0 0 74 74" fill="none" xmlns="http://www.w3.org/2000/svg">
<path d="M29.9903 39.6641C31.5449 41.7224 33.8481 43.0721 36.3934 43.4162C38.9386 43.7604 41.5174 43.0707 43.5624 41.4991C45.6075 39.9274 46.9512 37.6025 47.298 35.0357C47.6448 32.4689 46.9664 29.8706 45.4118 27.8122C43.8573 25.7539 41.5541 24.4042 39.0088 24.0601C36.4635 23.716 33.8847 24.4056 31.8397 25.9772C29.7947 27.5489 28.451 29.8739 28.1041 32.4406C27.7573 35.0074 28.4358 37.6058 29.9903 39.6641ZM51.7039 28.1905C51.3473 28.4646 50.8976 28.5848 50.4538 28.5248C50.01 28.4648 49.6083 28.2295 49.3373 27.8706C49.0662 27.5116 48.9479 27.0585 49.0083 26.6109C49.0688 26.1634 49.3031 25.7579 49.6597 25.4839C50.0163 25.2098 50.466 25.0896 50.9099 25.1496C51.3537 25.2096 51.7553 25.4449 52.0264 25.8039C52.2975 26.1628 52.4158 26.6159 52.3553 27.0635C52.2948 27.5111 52.0605 27.9165 51.7039 28.1905ZM50.8271 36.5904C50.9614 36.7681 51.129 36.9173 51.3206 37.0296C51.5122 37.1419 51.7239 37.2149 51.9437 37.2446C52.1634 37.2744 52.3869 37.2601 52.6014 37.2028C52.8159 37.1454 53.0172 37.046 53.1938 36.9103C53.3704 36.7746 53.5188 36.6053 53.6305 36.4119C53.7423 36.2185 53.8152 36.0049 53.8452 35.7833C53.8751 35.5616 53.8615 35.3363 53.8051 35.1202C53.7486 34.9041 53.6505 34.7014 53.5163 34.5237C53.2452 34.1647 52.8436 33.9294 52.3997 33.8694C51.9559 33.8094 51.5062 33.9296 51.1496 34.2037C50.793 34.4777 50.5587 34.8832 50.4982 35.3307C50.4377 35.7783 50.5561 36.2314 50.8271 36.5904ZM21.92 32.682C22.1911 33.0409 22.5927 33.2763 23.0365 33.3363C23.4804 33.3963 23.93 33.2761 24.2867 33.002C24.6433 32.7279 24.8776 32.3225 24.9381 31.8749C24.9985 31.4273 24.8802 30.9743 24.6091 30.6153C24.3381 30.2564 23.9364 30.021 23.4926 29.961C23.0488 29.901 22.5991 30.0213 22.2425 30.2953C21.8859 30.5694 21.6516 30.9748 21.5911 31.4224C21.5306 31.87 21.6489 32.3231 21.92 32.682ZM23.3994 41.388C23.6705 41.7469 24.0721 41.9823 24.516 42.0423C24.9598 42.1023 25.4095 41.9821 25.7661 41.708C26.1227 41.4339 26.357 41.0285 26.4175 40.5809C26.478 40.1333 26.3597 39.6802 26.0886 39.3213C25.8175 38.9624 25.4159 38.727 24.972 38.667C24.5282 38.607 24.0785 38.7273 23.7219 39.0013C23.3653 39.2754 23.131 39.6808 23.0705 40.1284C23.01 40.576 23.1284 41.0291 23.3994 41.388ZM45.5293 21.9384C45.1727 22.2125 44.723 22.3327 44.2791 22.2727C43.8353 22.2127 43.4337 21.9774 43.1626 21.6184C42.8915 21.2595 42.7732 20.8064 42.8337 20.3588C42.8942 19.9112 43.1285 19.5058 43.4851 19.2318C43.8417 18.9577 44.2914 18.8374 44.7352 18.8975C45.179 18.9575 45.5807 19.1928 45.8517 19.5517C46.1228 19.9107 46.2411 20.3638 46.1807 20.8113C46.1202 21.2589 45.8859 21.6644 45.5293 21.9384ZM29.5856 47.6553C29.8566 48.0142 30.2583 48.2496 30.7021 48.3096C31.1459 48.3696 31.5956 48.2494 31.9522 47.9753C32.3088 47.7012 32.5432 47.2958 32.6036 46.8482C32.6641 46.4006 32.5458 45.9476 32.2747 45.5886C32.0037 45.2297 31.602 44.9943 31.1582 44.9343C30.7143 44.8743 30.2647 44.9946 29.9081 45.2686C29.5515 45.5427 29.3171 45.9481 29.2567 46.3957C29.1962 46.8433 29.3145 47.2964 29.5856 47.6553ZM36.9111 20.3752C36.5545 20.6493 36.1049 20.7695 35.661 20.7095C35.2172 20.6495 34.8155 20.4141 34.5445 20.0552C34.2734 19.6963 34.1551 19.2432 34.2156 18.7956C34.276 18.348 34.5104 17.9426 34.867 17.6685C35.2236 17.3945 35.6732 17.2742 36.1171 17.3342C36.5609 17.3942 36.9626 17.6296 37.2336 17.9885C37.5047 18.3474 37.623 18.8005 37.5625 19.2481C37.5021 19.6957 37.2677 20.1011 36.9111 20.3752ZM38.2164 49.2066C38.4874 49.5655 38.8891 49.8009 39.3329 49.8609C39.7767 49.9209 40.2264 49.8007 40.583 49.5266C40.9396 49.2525 41.1739 48.8471 41.2344 48.3995C41.2949 47.9519 41.1766 47.4988 40.9055 47.1399C40.6344 46.781 40.2328 46.5456 39.789 46.4856C39.3451 46.4256 38.8955 46.5459 38.5389 46.8199C38.1823 47.094 37.9479 47.4994 37.8875 47.947C37.827 48.3946 37.9453 48.8477 38.2164 49.2066ZM28.945 24.0967C28.5884 24.3708 28.1387 24.491 27.6948 24.431C27.251 24.371 26.8494 24.1357 26.5783 23.7767C26.3072 23.4178 26.1889 22.9647 26.2494 22.5171C26.3099 22.0695 26.5442 21.6641 26.9008 21.3901C27.2574 21.116 27.7071 20.9957 28.1509 21.0557C28.5947 21.1158 28.9964 21.3511 29.2675 21.71C29.5385 22.069 29.6568 22.522 29.5964 22.9696C29.5359 23.4172 29.3016 23.8226 28.945 24.0967ZM46.1688 45.4957C46.303 45.6734 46.4707 45.8226 46.6623 45.9349C46.8539 46.0471 47.0656 46.1202 47.2854 46.1499C47.5051 46.1797 47.7286 46.1654 47.9431 46.1081C48.1576 46.0507 48.3589 45.9513 48.5355 45.8156C48.7121 45.6799 48.8605 45.5106 48.9722 45.3172C49.084 45.1238 49.1569 44.9102 49.1869 44.6886C49.2168 44.4669 49.2032 44.2416 49.1468 44.0255C49.0903 43.8094 48.9922 43.6067 48.858 43.429C48.5869 43.07 48.1853 42.8347 47.7414 42.7747C47.2976 42.7147 46.8479 42.8349 46.4913 43.109C46.1347 43.383 45.9004 43.7885 45.8399 44.236C45.7794 44.6836 45.8977 45.1367 46.1688 45.4957Z" fill="white"/>
<path d="M14.5095 31.3745C14.8332 28.1736 15.8066 25.0727 17.3693 22.2647C18.932 19.4567 21.0505 17.0018 23.5929 15.0526C33.8446 7.17389 48.4744 9.15188 56.2673 19.4703C60.3295 24.849 61.7319 31.4317 60.6931 37.6186L59.8277 44.0323C58.0902 56.8911 46.3403 65.9212 33.5893 64.1973C20.8383 62.4733 11.9066 50.6469 13.643 37.7868L14.5095 31.3745ZM25.6788 17.8145C23.4534 19.5207 21.6098 21.681 20.269 24.1539C18.9281 26.6268 18.1203 29.3564 17.8984 32.1637C17.4958 37.0838 18.916 41.9757 21.8846 45.8943C28.5261 54.6881 40.9921 56.3735 49.7291 49.6589C58.466 42.9443 60.1647 30.3729 53.5232 21.5791C46.8828 12.7867 34.4158 11.0999 25.6788 17.8145Z" fill="white"/>
</svg>
