<svg width="17" height="17" viewBox="0 0 17 17" fill="none" xmlns="http://www.w3.org/2000/svg">
<path d="M3.82047 5.67172V16.6118H0.207991V5.67172H3.82047ZM4.05036 2.29365C4.05765 2.8309 3.87338 3.27984 3.49754 3.64046C3.12169 4.00108 2.62726 4.18139 2.01423 4.18139H1.99234C1.39391 4.18139 0.912242 4.00108 0.547345 3.64046C0.182448 3.27984 0 2.8309 0 2.29365C0 1.74903 0.187922 1.29826 0.563766 0.941315C0.93961 0.584372 1.4304 0.405901 2.03612 0.405901C2.64185 0.405901 3.12717 0.584372 3.49206 0.941315C3.85696 1.29826 4.04306 1.74903 4.05036 2.29365ZM16.8144 10.3414V16.6118H13.2129V10.7609C13.2129 9.98815 13.0651 9.38282 12.7696 8.94492C12.474 8.50702 12.0124 8.28807 11.3848 8.28807C10.925 8.28807 10.54 8.41502 10.2299 8.66893C9.91972 8.92284 9.68801 9.23746 9.53476 9.6128C9.45448 9.83359 9.41434 10.1317 9.41434 10.507V16.6118H5.81281C5.8274 13.6753 5.8347 11.2945 5.8347 9.46929C5.8347 7.6441 5.83105 6.55488 5.82375 6.20161L5.81281 5.67172H9.41434V7.2614H9.39245C9.53841 7.02589 9.68801 6.81982 9.84127 6.64319C9.99453 6.46656 10.2007 6.27521 10.4598 6.06914C10.7188 5.86307 11.0363 5.703 11.4122 5.58892C11.788 5.47485 12.2058 5.41781 12.6656 5.41781C13.9135 5.41781 14.917 5.83547 15.676 6.67079C16.435 7.50611 16.8144 8.72965 16.8144 10.3414Z" fill="#58585A"/>
</svg>
