<svg width="18" height="17" viewBox="0 0 18 17" fill="none" xmlns="http://www.w3.org/2000/svg">
<path d="M16.207 5.66883L11.367 5.24528L9.47696 0.757656C9.13696 -0.0591924 7.97696 -0.0591924 7.63696 0.757656L5.74696 5.25536L0.916957 5.66883C0.0369575 5.73942 -0.323043 6.84872 0.346957 7.43362L4.01696 10.6405L2.91696 15.4004C2.71696 16.2677 3.64696 16.9534 4.40696 16.4895L8.55696 13.9684L12.707 16.4996C13.467 16.9635 14.397 16.2778 14.197 15.4105L13.097 10.6405L16.767 7.43362C17.437 6.84872 17.087 5.73942 16.207 5.66883ZM8.55696 12.0826L4.79696 14.3718L5.79696 10.0556L2.47696 7.15126L6.85696 6.76804L8.55696 2.70397L10.267 6.77813L14.647 7.16134L11.327 10.0657L12.327 14.3819L8.55696 12.0826Z" fill="#F8F8F8"/>
</svg>
