<svg width="17" height="18" viewBox="0 0 17 18" fill="none" xmlns="http://www.w3.org/2000/svg">
<path d="M16.0963 5.81257L11.2894 5.3726L9.41227 0.711083C9.07459 -0.137418 7.92251 -0.137418 7.58483 0.711083L5.70773 5.38308L0.910698 5.81257C0.0367052 5.88589 -0.320838 7.03818 0.344589 7.64575L3.98954 10.9769L2.89705 15.9213C2.69841 16.8221 3.62206 17.5345 4.37687 17.0526L8.49855 14.4338L12.6202 17.0631C13.375 17.5449 14.2987 16.8326 14.1 15.9317L13.0076 10.9769L16.6525 7.64575C17.3179 7.03818 16.9703 5.88589 16.0963 5.81257ZM8.49855 12.4749L4.76421 14.8528L5.75739 10.3693L2.46005 7.35244L6.81015 6.95438L8.49855 2.73282L10.1969 6.96485L14.547 7.36291L11.2496 10.3798L12.2428 14.8632L8.49855 12.4749Z" fill="#BFDF62"/>
</svg>
