<svg width="72" height="71" viewBox="0 0 72 71" fill="none" xmlns="http://www.w3.org/2000/svg">
<path d="M23.4849 41.151C22.8411 41.9123 22.9335 43.0747 23.6894 43.7247L25.0678 44.9102C25.8237 45.5603 26.9763 45.4686 27.62 44.7073C28.2637 43.9459 28.1713 42.7836 27.4154 42.1335L26.037 40.9481C25.2663 40.2853 24.1286 40.3896 23.4849 41.151ZM34.9655 45.2234C34.2097 44.5733 34.1173 43.411 34.761 42.6496C35.4173 41.8734 36.5573 41.7967 37.3132 42.4467L38.6916 43.6322C39.4474 44.2823 39.5398 45.4446 38.8961 46.206C38.2524 46.9673 37.0998 47.0589 36.3439 46.4088L34.9655 45.2234ZM42.801 33.1403C42.1573 33.9017 42.2497 35.064 43.0055 35.7141L44.3839 36.8995C45.1398 37.5496 46.2924 37.458 46.9361 36.6966C47.5798 35.9353 47.4874 34.7729 46.7316 34.1229L45.3532 32.9374C44.5973 32.2873 43.4573 32.364 42.801 33.1403ZM31.7294 34.2154C30.9735 33.5653 30.8812 32.403 31.5249 31.6417C32.1686 30.8803 33.3063 30.7759 34.0771 31.4388L35.4554 32.6242C36.2113 33.2743 36.3037 34.4366 35.66 35.198C35.0163 35.9593 33.8637 36.0509 33.1078 35.4009L31.7294 34.2154ZM45.7355 46.261C44.9797 45.6109 44.8873 44.4486 45.531 43.6872C46.1747 42.9259 47.3273 42.8343 48.0832 43.4843L49.4616 44.6698C50.2174 45.3199 50.3098 46.4822 49.6661 47.2436C49.0224 48.0049 47.8698 48.0965 47.1139 47.4464L45.7355 46.261ZM39.7821 24.6912C39.0262 24.0411 38.9338 22.8787 39.5775 22.1174C40.2212 21.3561 41.359 21.2517 42.1297 21.9145L43.5081 23.0999C44.2639 23.75 44.3563 24.9124 43.7126 25.6737C43.0689 26.4351 41.9163 26.5267 41.1604 25.8766L39.7821 24.6912Z" fill="white"/>
<path d="M17.603 17.117C17.21 16.779 16.7001 16.6121 16.1856 16.653C15.671 16.6939 15.1939 16.9393 14.8592 17.3351C14.5245 17.731 14.3596 18.2449 14.4008 18.7639C14.4421 19.2828 14.6861 19.7642 15.0791 20.1022L18.0429 22.6512L13.7522 27.726C11.5997 30.2767 10.5399 33.5856 10.8055 36.9266C11.071 40.2675 12.6402 43.3675 15.1685 45.546L16.6504 46.8205L17.4568 45.8667C20.9742 52.5318 27.8753 57.4047 36.6433 57.2632L52.1464 57.0054C53.2311 56.9851 54.2988 56.7331 55.2791 56.2659C56.2593 55.7987 57.1299 55.127 57.8333 54.2951C58.5366 53.4632 59.0567 52.4901 59.3593 51.44C59.6618 50.39 59.7399 49.2868 59.5883 48.2035L57.3903 32.7248C56.1436 23.9704 50.2824 17.8675 43.2012 15.4176L43.9963 14.4772L42.5143 13.2028C39.9835 11.0262 36.7002 9.95126 33.3867 10.2144C30.0731 10.4776 27.0006 12.0573 24.845 14.606L20.5669 19.666L17.603 17.117ZM20.2168 42.6024L24.9025 37.0603C26.9077 34.6958 27.9721 31.6649 27.8905 28.5527C30.9477 28.1425 33.7448 26.6059 35.7429 24.2389L40.4413 18.6819C46.8833 20.2986 52.4294 25.5117 53.5367 33.2776L55.7341 48.7479C55.8086 49.2812 55.7701 49.8243 55.6211 50.3411C55.4721 50.858 55.2161 51.337 54.8698 51.7465C54.5236 52.156 54.0951 52.4867 53.6126 52.7167C53.1301 52.9467 52.6045 53.0709 52.0706 53.081L36.5745 53.3397C28.7976 53.4623 22.8174 48.7626 20.2168 42.6024Z" fill="white"/>
</svg>
