<svg width="18" height="15" viewBox="0 0 18 15" fill="none" xmlns="http://www.w3.org/2000/svg">
<path d="M17.2523 2.10072C16.7634 2.82196 16.1722 3.43649 15.4789 3.94431C15.4862 4.04734 15.4899 4.20189 15.4899 4.40796C15.4899 5.36472 15.3512 6.31963 15.0739 7.2727C14.7966 8.22578 14.3751 9.14021 13.8095 10.016C13.2439 10.8918 12.5707 11.6664 11.7898 12.3398C11.0089 13.0132 10.0675 13.5505 8.96552 13.9516C7.86353 14.3527 6.68491 14.5532 5.42967 14.5532C3.45192 14.5532 1.64204 14.0196 0 12.9525C0.255428 12.9819 0.540047 12.9967 0.853859 12.9967C2.49589 12.9967 3.95913 12.4888 5.24357 11.4732C4.47728 11.4585 3.79128 11.2211 3.18555 10.7612C2.57982 10.3012 2.16384 9.71426 1.9376 9.00038C2.17843 9.03718 2.40102 9.05557 2.60536 9.05557C2.91918 9.05557 3.22934 9.0151 3.53585 8.93414C2.71848 8.76487 2.0416 8.35457 1.5052 7.70324C0.968801 7.05191 0.700602 6.29571 0.700602 5.43463V5.39048C1.19686 5.67014 1.72961 5.82102 2.29885 5.84309C1.81719 5.51927 1.43404 5.09609 1.14943 4.57356C0.864806 4.05102 0.722496 3.48433 0.722496 2.87348C0.722496 2.22583 0.883051 1.62602 1.20416 1.07405C2.08721 2.17064 3.16183 3.04827 4.42802 3.70696C5.69422 4.36565 7.04981 4.73179 8.4948 4.80539C8.43642 4.52572 8.40722 4.25341 8.40722 3.98847C8.40722 3.00227 8.75205 2.16144 9.44171 1.46595C10.1314 0.770465 10.9652 0.422722 11.9431 0.422722C12.9648 0.422722 13.8259 0.798063 14.5265 1.54875C15.322 1.39419 16.0701 1.10717 16.7707 0.687669C16.5006 1.53403 15.9825 2.18903 15.2162 2.65269C15.8949 2.5791 16.5736 2.3951 17.2523 2.10072Z" fill="#58585A"/>
</svg>
