<svg width="17" height="21" viewBox="0 0 17 21" fill="none" xmlns="http://www.w3.org/2000/svg">
<path d="M10.7103 14.1052V16.4345C10.7103 16.9276 10.568 17.1741 10.2834 17.1741C10.1156 17.1741 9.95136 17.0932 9.7908 16.9313V13.6084C9.95136 13.4465 10.1156 13.3655 10.2834 13.3655C10.568 13.3655 10.7103 13.6121 10.7103 14.1052ZM14.4104 14.1162V14.624H13.4252V14.1162C13.4252 13.6157 13.5894 13.3655 13.9178 13.3655C14.2462 13.3655 14.4104 13.6157 14.4104 14.1162ZM3.83569 11.7096H5.00701V10.6719H1.59157V11.7096H2.741V17.9911H3.83569V11.7096ZM6.9884 17.9911H7.96267V12.5376H6.9884V16.7105C6.76946 17.0196 6.56147 17.1741 6.36442 17.1741C6.23306 17.1741 6.15643 17.0969 6.13454 16.9423C6.12724 16.9202 6.12359 16.7914 6.12359 16.5559V12.5376H5.14932V16.854C5.14932 17.2146 5.17851 17.4832 5.23689 17.6599C5.32447 17.9322 5.53611 18.0683 5.87181 18.0683C6.22211 18.0683 6.59431 17.8439 6.9884 17.3949V17.9911ZM11.6846 16.3572V14.1824C11.6846 13.6452 11.6518 13.2809 11.5861 13.0895C11.462 12.6774 11.203 12.4713 10.8089 12.4713C10.444 12.4713 10.1046 12.67 9.7908 13.0675V10.6719H8.81653V17.9911H9.7908V17.4612C10.1192 17.8659 10.4586 18.0683 10.8089 18.0683C11.203 18.0683 11.462 17.8659 11.5861 17.4612C11.6518 17.2624 11.6846 16.8945 11.6846 16.3572ZM15.3847 16.2468V16.1033H14.3885C14.3885 16.4786 14.3812 16.7031 14.3666 16.7767C14.3155 17.0417 14.1696 17.1741 13.9287 17.1741C13.593 17.1741 13.4252 16.9202 13.4252 16.4124V15.452H15.3847V14.3149C15.3847 13.7335 15.2862 13.3066 15.0891 13.0343C14.8045 12.659 14.4177 12.4713 13.9287 12.4713C13.4325 12.4713 13.042 12.659 12.7574 13.0343C12.5531 13.3066 12.4509 13.7335 12.4509 14.3149V16.2247C12.4509 16.8062 12.5567 17.233 12.7684 17.5053C13.053 17.8807 13.4471 18.0683 13.9506 18.0683C14.4761 18.0683 14.8702 17.8733 15.1329 17.4832C15.2643 17.2845 15.3409 17.0858 15.3628 16.8871C15.3774 16.8209 15.3847 16.6074 15.3847 16.2468ZM8.72896 6.1678V3.84951C8.72896 3.3417 8.57205 3.08779 8.25824 3.08779C7.94443 3.08779 7.78752 3.3417 7.78752 3.84951V6.1678C7.78752 6.68297 7.94443 6.94056 8.25824 6.94056C8.57205 6.94056 8.72896 6.68297 8.72896 6.1678ZM16.5998 14.4584C16.5998 16.1806 16.5049 17.4685 16.3152 18.3222C16.213 18.7565 16.0014 19.1208 15.6802 19.4151C15.3591 19.7095 14.9869 19.8788 14.5637 19.923C13.2208 20.0775 11.1957 20.1548 8.48812 20.1548C5.78059 20.1548 3.75541 20.0775 2.41259 19.923C1.98931 19.8788 1.61529 19.7095 1.29053 19.4151C0.965773 19.1208 0.755958 18.7565 0.661084 18.3222C0.471338 17.498 0.376465 16.21 0.376465 14.4584C0.376465 12.7363 0.471338 11.4483 0.661084 10.5946C0.763256 10.1604 0.974896 9.7961 1.29601 9.50171C1.61711 9.20733 1.99296 9.03438 2.42354 8.98286C3.75906 8.83567 5.78059 8.76207 8.48812 8.76207C11.1957 8.76207 13.2208 8.83567 14.5637 8.98286C14.9869 9.03438 15.361 9.20733 15.6857 9.50171C16.0105 9.7961 16.2203 10.1604 16.3152 10.5946C16.5049 11.4189 16.5998 12.7068 16.5998 14.4584ZM5.67477 0.372086H6.79135L5.46678 4.77683V7.76852H4.37209V4.77683C4.26991 4.23221 4.04733 3.45209 3.70432 2.43646C3.4343 1.67842 3.19712 0.990295 2.99278 0.372086H4.15315L4.93038 3.27546L5.67477 0.372086ZM9.72512 4.04822V5.98013C9.72512 6.57626 9.62295 7.01048 9.41861 7.28278C9.14859 7.65812 8.7618 7.8458 8.25824 7.8458C7.76928 7.8458 7.38613 7.65812 7.10881 7.28278C6.90447 7.00312 6.8023 6.5689 6.8023 5.98013V4.04822C6.8023 3.45945 6.90447 3.02891 7.10881 2.75661C7.38613 2.38127 7.76928 2.1936 8.25824 2.1936C8.7618 2.1936 9.14859 2.38127 9.41861 2.75661C9.62295 3.02891 9.72512 3.45945 9.72512 4.04822ZM13.3923 2.25983V7.76852H12.3962V7.16135C12.0094 7.61765 11.6335 7.8458 11.2686 7.8458C10.9329 7.8458 10.7176 7.70964 10.6228 7.43734C10.5644 7.2607 10.5352 6.98472 10.5352 6.60938V2.25983H11.5314V6.31131C11.5314 6.55418 11.535 6.68297 11.5423 6.69769C11.5642 6.8596 11.6408 6.94056 11.7722 6.94056C11.9692 6.94056 12.1772 6.78233 12.3962 6.46586V2.25983H13.3923Z" fill="#58585A"/>
</svg>
